<?xml version="1.0" encoding="utf-8"?>
<!-- Generator: Adobe Illustrator 15.0.2, SVG Export Plug-In . SVG Version: 6.00 Build 0)  -->
<!DOCTYPE svg PUBLIC "-//W3C//DTD SVG 1.1//EN" "http://www.w3.org/Graphics/SVG/1.1/DTD/svg11.dtd">
<svg version="1.1" id="Layer_1" xmlns="http://www.w3.org/2000/svg" xmlns:xlink="http://www.w3.org/1999/xlink" x="0px" y="0px"
	 width="512px" height="717.736px" viewBox="0 0 512 717.736" enable-background="new 0 0 512 717.736" xml:space="preserve">
<g>
	<path d="M511.983,86.42h-0.162c0-0.406,0.113-0.789,0.113-1.203c0-24.075-19.52-43.648-43.607-43.648
		c-0.325,0-0.634,0.089-0.959,0.097H346.211V13.356l0,0V13.34c0-7.33-5.94-13.259-13.255-13.275V0h-153.53v0.049
		c-0.122,0-0.231-0.033-0.357-0.033c-7.322,0-13.263,5.933-13.263,13.267c0,0.081,0.024,0.167,0.024,0.248v28.127H43.791
		c-0.057,0-0.11-0.017-0.167-0.017C19.549,41.641,0,61.23,0,85.273c0,0.391,0.11,0.748,0.118,1.138H0v587.286h0.028
		c0,0.073-0.028,0.154-0.028,0.22c0,24.096,19.557,43.592,43.632,43.592c0.65,0,1.256-0.163,1.906-0.187v0.17h420.253
		c0.813,0.049,1.594,0.244,2.406,0.244c24.087,0,43.607-19.537,43.607-43.592c0-0.154-0.049-0.293-0.049-0.455H512V86.42H511.983z
		 M429.27,635.039H82.714V124.278h41.58v25.538c-0.016,0.276-0.081,0.524-0.081,0.809c0,8.306,6.741,15.095,15.096,15.095
		c0.04,0,0.073-0.008,0.117-0.008v0.065h233.229c8.37-0.017,15.091-6.79,15.091-15.088c0-0.126-0.032-0.239-0.032-0.365v-26.046
		h41.54v510.761H429.27z"/>
	<path d="M165.696,284.972c0-5.478-4.47-9.947-9.968-9.947c-0.26,0-0.483,0.126-0.735,0.15v-0.15h-20.821
		c-5.497,0-9.976,4.486-9.976,9.964v21.593l0,0v0.016c0,5.462,4.47,9.932,9.976,9.932h0.009h20.824v-0.15
		c0.248,0.016,0.464,0.15,0.716,0.15c5.514,0,9.983-4.47,9.983-9.932v-0.016l0,0v-21.593h-0.008V284.972z"/>
	<path d="M387.73,284.972c0-5.478-4.47-9.947-9.972-9.947c-0.008,0-0.008,0-0.017,0h-160.56c-5.502,0-9.976,4.486-9.976,9.964
		v21.593l0,0v0.016c0,5.462,4.466,9.932,9.976,9.932h0.008h160.561c5.518,0,9.987-4.47,9.987-9.932v-0.016l0,0v-21.593h-0.008
		V284.972z"/>
	<path d="M165.696,367.979c0-5.474-4.47-9.943-9.968-9.943c-0.26,0-0.483,0.126-0.735,0.15v-0.15h-20.821
		c-5.497,0-9.976,4.486-9.976,9.959v21.602l0,0v0.016c0,5.461,4.47,9.923,9.976,9.923h0.009h20.824v-0.146
		c0.248,0.017,0.464,0.146,0.716,0.146c5.514,0,9.983-4.462,9.983-9.923v-0.016l0,0v-21.602h-0.008V367.979z"/>
	<path d="M387.73,367.979c0-5.474-4.47-9.943-9.972-9.943c-0.008,0-0.008,0-0.017,0h-160.56c-5.502,0-9.976,4.486-9.976,9.959
		v21.602l0,0v0.016c0,5.461,4.466,9.923,9.976,9.923h0.008h160.561c5.518,0,9.987-4.462,9.987-9.923v-0.016l0,0v-21.602h-0.008
		V367.979z"/>
	<path d="M165.696,450.984c0-5.469-4.47-9.938-9.968-9.938c-0.26,0-0.483,0.122-0.735,0.154v-0.154h-20.821
		c-5.497,0-9.976,4.485-9.976,9.955v21.601l0,0v0.017c0,5.461,4.47,9.931,9.976,9.931h0.009h20.824v-0.154
		c0.248,0.016,0.464,0.154,0.716,0.154c5.514,0,9.983-4.47,9.983-9.931v-0.017l0,0v-21.601h-0.008V450.984z"/>
	<path d="M387.73,450.984c0-5.469-4.47-9.938-9.972-9.938c-0.008,0-0.008,0-0.017,0h-160.56c-5.502,0-9.976,4.485-9.976,9.955
		v21.601l0,0v0.017c0,5.461,4.466,9.931,9.976,9.931h0.008h160.561c5.518,0,9.987-4.47,9.987-9.931v-0.017l0,0v-21.601h-0.008
		V450.984z"/>
</g>
</svg>
